<?xml version="1.0" encoding="UTF-8" standalone="no"?>
<!DOCTYPE svg PUBLIC "-//W3C//DTD SVG 1.1//EN"
 "http://www.w3.org/Graphics/SVG/1.1/DTD/svg11.dtd">
<!-- Generated by graphviz version 2.43.0 (0)
 -->
<!-- Title: %3 Pages: 1 -->
<svg width="1121pt" height="391pt"
 viewBox="0.00 0.00 1120.79 391.00" xmlns="http://www.w3.org/2000/svg" xmlns:xlink="http://www.w3.org/1999/xlink">
<g id="graph0" class="graph" transform="scale(1 1) rotate(0) translate(4 387)">
<title>%3</title>
<polygon fill="white" stroke="transparent" points="-4,4 -4,-387 1116.79,-387 1116.79,4 -4,4"/>
<text text-anchor="middle" x="556.4" y="-52.8" font-family="Times,serif" font-size="14.00">Namespaces:</text>
<text text-anchor="middle" x="556.4" y="-37.8" font-family="Times,serif" font-size="14.00">rdf: http://www.w3.org/1999/02/22&#45;rdf&#45;syntax&#45;ns#</text>
<text text-anchor="middle" x="556.4" y="-22.8" font-family="Times,serif" font-size="14.00">xsd: http://www.w3.org/2001/XMLSchema#</text>
<text text-anchor="middle" x="556.4" y="-7.8" font-family="Times,serif" font-size="14.00">ieee1451: http://iml.ubi.pt/2022/ieee1451/</text>
<!-- B_:genid1 -->
<g id="node1" class="node">
<title>B_:genid1</title>
<ellipse fill="none" stroke="green" cx="277.79" cy="-294.5" rx="18" ry="18"/>
</g>
<!-- LUBI INTERPOP 2023|Datatype: xs:string -->
<g id="node2" class="node">
<title>LUBI INTERPOP 2023|Datatype: xs:string</title>
<polygon fill="none" stroke="black" points="551.79,-336.5 551.79,-382.5 718.79,-382.5 718.79,-336.5 551.79,-336.5"/>
<text text-anchor="middle" x="635.29" y="-367.3" font-family="Times,serif" font-size="14.00">UBI INTERPOP 2023</text>
<polyline fill="none" stroke="black" points="551.79,-359.5 718.79,-359.5 "/>
<text text-anchor="middle" x="635.29" y="-344.3" font-family="Times,serif" font-size="14.00">Datatype: xs:string</text>
</g>
<!-- B_:genid1&#45;&gt;LUBI INTERPOP 2023|Datatype: xs:string -->
<g id="edge1" class="edge">
<title>B_:genid1&#45;&gt;LUBI INTERPOP 2023|Datatype: xs:string</title>
<path fill="none" stroke="black" d="M293.25,-303.85C299.37,-307.4 306.7,-311.15 313.79,-313.5 388.12,-338.13 476.45,-349.57 541.54,-354.89"/>
<polygon fill="black" stroke="black" points="541.54,-358.4 551.78,-355.69 542.09,-351.42 541.54,-358.4"/>
<text text-anchor="middle" x="423.79" y="-357.3" font-family="Times,serif" font-size="14.00">ieee1451:NCAPManufactureID</text>
</g>
<!-- L0.3|Datatype: xs:string -->
<g id="node3" class="node">
<title>L0.3|Datatype: xs:string</title>
<polygon fill="none" stroke="black" points="558.29,-271.5 558.29,-317.5 712.29,-317.5 712.29,-271.5 558.29,-271.5"/>
<text text-anchor="middle" x="635.29" y="-302.3" font-family="Times,serif" font-size="14.00">0.3</text>
<polyline fill="none" stroke="black" points="558.29,-294.5 712.29,-294.5 "/>
<text text-anchor="middle" x="635.29" y="-279.3" font-family="Times,serif" font-size="14.00">Datatype: xs:string</text>
</g>
<!-- B_:genid1&#45;&gt;L0.3|Datatype: xs:string -->
<g id="edge2" class="edge">
<title>B_:genid1&#45;&gt;L0.3|Datatype: xs:string</title>
<path fill="none" stroke="black" d="M295.94,-294.5C340.65,-294.5 463.21,-294.5 547.85,-294.5"/>
<polygon fill="black" stroke="black" points="547.98,-298 557.98,-294.5 547.98,-291 547.98,-298"/>
<text text-anchor="middle" x="423.79" y="-298.3" font-family="Times,serif" font-size="14.00">ieee1451:NCAPModelNumber</text>
</g>
<!-- B_:genid2 -->
<g id="node4" class="node">
<title>B_:genid2</title>
<ellipse fill="none" stroke="green" cx="635.29" cy="-234.5" rx="18" ry="18"/>
</g>
<!-- B_:genid1&#45;&gt;B_:genid2 -->
<g id="edge8" class="edge">
<title>B_:genid1&#45;&gt;B_:genid2</title>
<path fill="none" stroke="black" d="M293.23,-285.09C299.34,-281.53 306.68,-277.79 313.79,-275.5 418.39,-241.73 550.62,-235.64 606.91,-234.64"/>
<polygon fill="black" stroke="black" points="607.18,-238.13 617.13,-234.5 607.08,-231.13 607.18,-238.13"/>
<text text-anchor="middle" x="423.79" y="-279.3" font-family="Times,serif" font-size="14.00">ieee1451:TIM</text>
</g>
<!-- L1|Datatype: xsd:unsignedByte -->
<g id="node5" class="node">
<title>L1|Datatype: xsd:unsignedByte</title>
<polygon fill="none" stroke="black" points="894.79,-284.5 894.79,-330.5 1112.79,-330.5 1112.79,-284.5 894.79,-284.5"/>
<text text-anchor="middle" x="1003.79" y="-315.3" font-family="Times,serif" font-size="14.00">1</text>
<polyline fill="none" stroke="black" points="894.79,-307.5 1112.79,-307.5 "/>
<text text-anchor="middle" x="1003.79" y="-292.3" font-family="Times,serif" font-size="14.00">Datatype: xsd:unsignedByte</text>
</g>
<!-- B_:genid2&#45;&gt;L1|Datatype: xsd:unsignedByte -->
<g id="edge3" class="edge">
<title>B_:genid2&#45;&gt;L1|Datatype: xsd:unsignedByte</title>
<path fill="none" stroke="black" d="M653.3,-236.72C671.13,-239.76 699.23,-246.64 718.79,-261.5 730.28,-270.22 724.33,-281.25 736.79,-288.5 780.69,-314.05 835.8,-321.19 884.47,-321.01"/>
<polygon fill="black" stroke="black" points="884.8,-324.5 894.75,-320.86 884.7,-317.5 884.8,-324.5"/>
<text text-anchor="middle" x="806.79" y="-325.3" font-family="Times,serif" font-size="14.00">ieee1451:timId</text>
</g>
<!-- B_:genid2&#45;&gt;L1|Datatype: xsd:unsignedByte -->
<g id="edge4" class="edge">
<title>B_:genid2&#45;&gt;L1|Datatype: xsd:unsignedByte</title>
<path fill="none" stroke="black" d="M653.34,-237.34C673.32,-240.63 707.43,-246.17 736.79,-250.5 798.91,-259.66 815.43,-256.17 876.79,-269.5 891.99,-272.8 908.02,-277.04 923.36,-281.47"/>
<polygon fill="black" stroke="black" points="922.74,-284.94 933.33,-284.41 924.72,-278.22 922.74,-284.94"/>
<text text-anchor="middle" x="806.79" y="-273.3" font-family="Times,serif" font-size="14.00">ieee1451:channelId</text>
</g>
<!-- L0|Datatype: xsd:unsignedByte -->
<g id="node6" class="node">
<title>L0|Datatype: xsd:unsignedByte</title>
<polygon fill="none" stroke="black" points="894.79,-214.5 894.79,-260.5 1112.79,-260.5 1112.79,-214.5 894.79,-214.5"/>
<text text-anchor="middle" x="1003.79" y="-245.3" font-family="Times,serif" font-size="14.00">0</text>
<polyline fill="none" stroke="black" points="894.79,-237.5 1112.79,-237.5 "/>
<text text-anchor="middle" x="1003.79" y="-222.3" font-family="Times,serif" font-size="14.00">Datatype: xsd:unsignedByte</text>
</g>
<!-- B_:genid2&#45;&gt;L0|Datatype: xsd:unsignedByte -->
<g id="edge5" class="edge">
<title>B_:genid2&#45;&gt;L0|Datatype: xsd:unsignedByte</title>
<path fill="none" stroke="black" d="M653.5,-234.5C692.97,-234.52 793.08,-234.66 876.79,-235.5 879.33,-235.53 881.89,-235.55 884.48,-235.58"/>
<polygon fill="black" stroke="black" points="884.5,-239.08 894.54,-235.7 884.58,-232.08 884.5,-239.08"/>
<text text-anchor="middle" x="806.79" y="-239.3" font-family="Times,serif" font-size="14.00">ieee1451:chanType</text>
</g>
<!-- LTemperature|Datatype: xsd:string -->
<g id="node7" class="node">
<title>LTemperature|Datatype: xsd:string</title>
<polygon fill="none" stroke="black" points="922.29,-149.5 922.29,-195.5 1085.29,-195.5 1085.29,-149.5 922.29,-149.5"/>
<text text-anchor="middle" x="1003.79" y="-180.3" font-family="Times,serif" font-size="14.00">Temperature</text>
<polyline fill="none" stroke="black" points="922.29,-172.5 1085.29,-172.5 "/>
<text text-anchor="middle" x="1003.79" y="-157.3" font-family="Times,serif" font-size="14.00">Datatype: xsd:string</text>
</g>
<!-- B_:genid2&#45;&gt;LTemperature|Datatype: xsd:string -->
<g id="edge6" class="edge">
<title>B_:genid2&#45;&gt;LTemperature|Datatype: xsd:string</title>
<path fill="none" stroke="black" d="M653.35,-231.37C673.33,-227.73 707.44,-221.56 736.79,-216.5 795.06,-206.46 860.6,-195.62 912.04,-187.2"/>
<polygon fill="black" stroke="black" points="912.83,-190.62 922.13,-185.56 911.7,-183.71 912.83,-190.62"/>
<text text-anchor="middle" x="806.79" y="-220.3" font-family="Times,serif" font-size="14.00">ieee1451:tCName</text>
</g>
<!-- L303.15|Datatype: xsd:string -->
<g id="node8" class="node">
<title>L303.15|Datatype: xsd:string</title>
<polygon fill="none" stroke="black" points="922.29,-84.5 922.29,-130.5 1085.29,-130.5 1085.29,-84.5 922.29,-84.5"/>
<text text-anchor="middle" x="1003.79" y="-115.3" font-family="Times,serif" font-size="14.00">303.15</text>
<polyline fill="none" stroke="black" points="922.29,-107.5 1085.29,-107.5 "/>
<text text-anchor="middle" x="1003.79" y="-92.3" font-family="Times,serif" font-size="14.00">Datatype: xsd:string</text>
</g>
<!-- B_:genid2&#45;&gt;L303.15|Datatype: xsd:string -->
<g id="edge7" class="edge">
<title>B_:genid2&#45;&gt;L303.15|Datatype: xsd:string</title>
<path fill="none" stroke="black" d="M650.24,-224.37C669.03,-211.15 703.93,-188.1 736.79,-174.5 793.22,-151.14 859.86,-134.37 912.32,-123.45"/>
<polygon fill="black" stroke="black" points="913.19,-126.85 922.28,-121.41 911.78,-119.99 913.19,-126.85"/>
<text text-anchor="middle" x="806.79" y="-178.3" font-family="Times,serif" font-size="14.00">ieee1451:kelvins</text>
</g>
<!-- Rieee1451: -->
<g id="node9" class="node">
<title>Rieee1451:</title>
<ellipse fill="none" stroke="blue" cx="55.9" cy="-294.5" rx="55.79" ry="18"/>
<text text-anchor="middle" x="55.9" y="-290.8" font-family="Times,serif" font-size="14.00">ieee1451:</text>
</g>
<!-- Rieee1451:&#45;&gt;B_:genid1 -->
<g id="edge9" class="edge">
<title>Rieee1451:&#45;&gt;B_:genid1</title>
<path fill="none" stroke="black" d="M111.82,-294.5C155.67,-294.5 215.25,-294.5 249.5,-294.5"/>
<polygon fill="black" stroke="black" points="249.68,-298 259.68,-294.5 249.68,-291 249.68,-298"/>
<text text-anchor="middle" x="185.79" y="-298.3" font-family="Times,serif" font-size="14.00">ieee1451:NCAP</text>
</g>
</g>
</svg>

